<svg xmlns="http://www.w3.org/2000/svg" xmlns:xlink="http://www.w3.org/1999/xlink" viewBox="0 0 1500 2000"><defs><style>.cls-1{fill:#ebebeb}.cls-2{fill:url(#Dégradé_sans_nom_78-2);}.cls-3{fill:#ebebeb;stroke:#ffcccc;}.cls-11,.cls-13,.cls-14,.cls-19,.cls-20,.cls-21,.cls-22,.cls-23,.cls-24,.cls-25,.cls-26,.cls-27,.cls-3,.cls-33,.cls-34,.cls-47,.cls-9{stroke-miterlimit:10;}.cls-4{fill:#e3cccc;}.cls-5{fill:#8367a0;}.cls-47,.cls-6{opacity:0.1;}.cls-7{fill:#fff;opacity:0.11;}.cls-8{fill:#e3cccc;}.cls-15,.cls-27,.cls-9{fill:none;}.cls-9{stroke:#bf6ee0;stroke-width:4px;}.cls-10{fill:#ffcccc;}.cls-11,.cls-12{fill:#af9dbf;}.cls-11{stroke:#af9dbf;}.cls-13{fill:#cbc2d3;stroke:#cbc2d3;}.cls-14{fill:#63576b;stroke:#63576b;}.cls-16{fill:#afa9b5;}.cls-17{fill:#bda5ce;}.cls-18{fill:#e7cff9;}.cls-19{fill:#4d4260;}.cls-19,.cls-20,.cls-21,.cls-22,.cls-23,.cls-24,.cls-25{stroke:#360751;}.cls-20{fill:#8367a0;}.cls-21{fill:#5f4e84;}.cls-22{fill:#503699;}.cls-23{fill:#423859;}.cls-24{fill:#58477c;}.cls-25{fill:#826daf;}.cls-26{fill:#270638;}.cls-26,.cls-27,.cls-33{stroke:#522f7f;}.cls-26,.cls-33,.cls-34{stroke-width:5px;}.cls-28{fill:#360c50;}.cls-29{fill:#3d115f;}.cls-30{fill:#4a187a;}.cls-31{fill:#5e22a7;}.cls-32{fill:#7941c9;}.cls-33{fill:#522f7f;}.cls-34{fill:#d5c7e2;stroke:#d5c7e2;}.cls-35{fill:#1d1028;}.cls-36{fill:#131214;}.cls-37{fill:#520954;}.cls-38{fill:#1d0d2b;}.cls-39{fill:#0a0211;}.cls-40{fill:#1c0f28;}.cls-41{opacity:0.5;}.cls-42{fill:#6c30a0;}.cls-43{fill:#6b23b7;}.cls-44{fill:#8a4ccc;}.cls-45{fill:#322b3a;}.cls-46,.cls-47{fill:#ccba9f;}.cls-47{stroke:#ccba9f;}</style><radialGradient id="Dégradé_sans_nom_78" cx="750" cy="998.68" r="883.88" gradientTransform="matrix(-0.71, 0.53, -0.57, -0.43, 1845.27, 780.13)" gradientUnits="userSpaceOnUse"><stop offset="0" stop-color="#3f0047"/><stop offset="0.51" stop-color="#1c002a"/><stop offset="1" stop-color="#1c002a"/></radialGradient><radialGradient id="Dégradé_sans_nom_78-2" cy="754" r="752.5" gradientTransform="matrix(1, 0, 0, 1, 0, 0)" xlink:href="#Dégradé_sans_nom_78"/></defs><title>Plan de travail 1</title><g id="Calque_1" data-name="Calque 1"><polygon class="cls-1" points="1500 1509 0 1509 0 1123.57 0 -1 1500 -1 1500 1509"/><path class="cls-2" d="M1494,5V1503H6V5H1494m6-6H0V1509H1500V-1Z"/><polygon class="cls-3" points="0 1509 1500 1509 1500.5 2000.5 0.5 2000.5 0 1509"/></g><g id="clavier"><rect class="cls-4" x="900.74" y="1010.29" width="10.36" height="3.37"/><path class="cls-4" d="M910.6,1010.79v2.37h-9.36v-2.37h9.36m1-1H900.24v4.37H911.6v-4.37Z"/><rect class="cls-4" x="913.23" y="1010.29" width="10.36" height="3.37"/><path class="cls-4" d="M923.09,1010.79v2.37h-9.36v-2.37h9.36m1-1H912.73v4.37h11.36v-4.37Z"/><rect class="cls-4" x="925.72" y="1010.29" width="10.36" height="3.37"/><path class="cls-4" d="M935.58,1010.79v2.37h-9.36v-2.37h9.36m1-1H925.22v4.37h11.36v-4.37Z"/><rect class="cls-4" x="938.21" y="1010.29" width="10.36" height="3.37"/><path class="cls-4" d="M948.07,1010.79v2.37h-9.36v-2.37h9.36m1-1H937.71v4.37h11.36v-4.37Z"/><rect class="cls-4" x="950.71" y="1010.29" width="10.36" height="3.37"/><path class="cls-4" d="M960.56,1010.79v2.37H951.2v-2.37h9.36m1-1H950.2v4.37h11.36v-4.37Z"/><rect class="cls-4" x="963.2" y="1010.29" width="10.36" height="3.37"/><path class="cls-4" d="M973.05,1010.79v2.37H963.7v-2.37h9.36m1-1H962.7v4.37h11.36v-4.37Z"/><rect class="cls-4" x="975.69" y="1010.29" width="10.36" height="3.37"/><path class="cls-4" d="M985.54,1010.79v2.37h-9.36v-2.37h9.36m1-1H975.19v4.37h11.36v-4.37Z"/><rect class="cls-4" x="988.69" y="1010.29" width="10.36" height="3.37"/><path class="cls-4" d="M998.54,1010.79v2.37h-9.36v-2.37h9.36m1-1H988.19v4.37h11.36v-4.37Z"/><rect class="cls-4" x="1001.69" y="1010.29" width="10.36" height="3.37"/><path class="cls-4" d="M1011.54,1010.79v2.37h-9.36v-2.37h9.36m1-1h-11.36v4.37h11.36v-4.37Z"/><rect class="cls-4" x="1014.69" y="1010.29" width="10.36" height="3.37"/><path class="cls-4" d="M1024.54,1010.79v2.37h-9.36v-2.37h9.36m1-1h-11.36v4.37h11.36v-4.37Z"/><rect class="cls-4" x="1027.69" y="1010.29" width="10.36" height="3.37"/><path class="cls-4" d="M1037.54,1010.79v2.37h-9.36v-2.37h9.36m1-1h-11.36v4.37h11.36v-4.37Z"/><rect class="cls-4" x="1040.69" y="1010.29" width="10.36" height="3.37"/><path class="cls-4" d="M1050.54,1010.79v2.37h-9.36v-2.37h9.36m1-1h-11.36v4.37h11.36v-4.37Z"/><rect class="cls-4" x="1053.69" y="1010.29" width="10.36" height="3.37"/><path class="cls-4" d="M1063.54,1010.79v2.37h-9.36v-2.37h9.36m1-1h-11.36v4.37h11.36v-4.37Z"/><rect class="cls-4" x="1066.69" y="1010.29" width="10.36" height="3.37"/><path class="cls-4" d="M1076.54,1010.79v2.37h-9.36v-2.37h9.36m1-1h-11.36v4.37h11.36v-4.37Z"/><rect class="cls-4" x="1079.69" y="1010.29" width="10.36" height="3.37"/><path class="cls-4" d="M1089.54,1010.79v2.37h-9.36v-2.37h9.36m1-1h-11.36v4.37h11.36v-4.37Z"/><rect class="cls-4" x="1093.69" y="1010.29" width="10.36" height="3.37"/><path class="cls-4" d="M1103.54,1010.79v2.37h-9.36v-2.37h9.36m1-1h-11.36v4.37h11.36v-4.37Z"/><rect class="cls-4" x="1106.69" y="1010.29" width="10.36" height="3.37"/><path class="cls-4" d="M1116.54,1010.79v2.37h-9.36v-2.37h9.36m1-1h-11.36v4.37h11.36v-4.37Z"/><rect class="cls-4" x="1119.69" y="1010.29" width="10.36" height="3.37"/><path class="cls-4" d="M1129.54,1010.79v2.37h-9.36v-2.37h9.36m1-1h-11.36v4.37h11.36v-4.37Z"/><rect class="cls-5" x="890.86" y="1013.43" width="249.82" height="30.6" rx="4.29" ry="4.29"/></g><g id="tasse"><g class="cls-6"><path class="cls-7" d="M407.55,922.59c-.16.3-12.71-2-13.31-2.07a4.86,4.86,0,0,0-2.13.12,2.46,2.46,0,0,0-1.29.49,1.22,1.22,0,0,0-1,1.18,10.52,10.52,0,0,0-.55,5.62,21.91,21.91,0,0,0,1.79,6,32.87,32.87,0,0,0,4.38,6c2.44,2.92,5.18,5.55,7.74,8.36a20.55,20.55,0,0,1,2.68,3.21,13.9,13.9,0,0,1,2.44,4.15l-.1-.33.48,2.25,1.26-5.15-2.24,8,4.83-9.4-7.17,10.1,6.16-6.8L404,961.48l6.93-5.67-8.38,5.84,7.66-4.59-12.57,5.48a2.77,2.77,0,0,0-1,.56,2.17,2.17,0,0,0-.74,2.31c.4,1.69,1.72,2.86,2.81,4.11a5.59,5.59,0,0,1,2.29,3.34,3.31,3.31,0,0,1,.15,2.73l.08-.34c-1.16,2.63-3.07,4.74-4.43,7.25a4.22,4.22,0,0,0-.81,2.74c.45,2.52,3.53,2.93,5.45,3.39.72.17,2.76-4.55,2.84-4.71q1-1.92,1.91-3.9a1.52,1.52,0,0,0,.26-1.16q-.71.59-1-.1l-.12.34.32-.91-.15.33c1-1.2.71-.9,1.11-2.62s.9-3.64,1.31-5.47l-.1.34a17.1,17.1,0,0,0,1.29-3.33c.17-.78.57-2.33.14-3s-1.19-1-1.44-1.59c-.34-.85.41-1.44.94-1.93l-.29.23c1.17-.78,1.15-.61,1.7-1.95-1.79,4.35,2.2-8.8,1.76-12-.3-2.19-1.67-4.31-2.83-6.11-1.6-2.49-3-5.41-5-7.55a5.12,5.12,0,0,1-1.41-2l-.33-1.27c-.43-1.12-1.5-1.75-.78-3.08l.6-.67a1.16,1.16,0,0,0,1.1-1.38,3.69,3.69,0,0,1,1.84-1.86l-10.09-2.12a9.62,9.62,0,0,1,2.25,4.19q.62,2.48,1.1,5a1.11,1.11,0,0,0,.76-.32c1.9-1,3.56-2.77,5.18-4.14C405.38,924.85,406.83,923.93,407.55,922.59Z"/><path class="cls-7" d="M406.52,923.5a39.69,39.69,0,0,1-6.25-.85c-1.53-.21-5.15-1.16-7.18-.56a4.84,4.84,0,0,0-2.14,1.06c-1.13,1.2-1.23,3.39-1.22,4.89a18.07,18.07,0,0,0,1.09,5.78,26.82,26.82,0,0,0,4.74,7.82c1.94,2.47,4.11,4.69,6.26,7a34.9,34.9,0,0,1,4.36,5.07,14.24,14.24,0,0,1,2.5,4.2l-.12-.33.26,3.84,3-10.38-6.7,12.87,6.37-8.6-10.89,8.62,7.87-4.58-9.67,4.45-1.67.79a2.16,2.16,0,0,0-.86,1.73,5.47,5.47,0,0,0,1.67,3.78q1,1.13,1.89,2.31a5.11,5.11,0,0,1,1.62,3.27l0-.34a4.2,4.2,0,0,1-.77,2.93,20.2,20.2,0,0,1-2,3.34,25.69,25.69,0,0,0-2.06,3.33,3.19,3.19,0,0,0-.5,2.09c.54,2.68,3.22,3,5.45,3.56.63.16,2.19-5,2.21-5,0,.13,1.77-5.33,1.5-5.28q-.81.49-1.12-.27l-.07.34.27-1-.1.33c1-1.22.7-1,1.08-2.67a43.8,43.8,0,0,1,1.25-5.05A15,15,0,0,0,408,967.1c.13-5.6-3.08,1.16,3.74-11.61l-6.68,8.73a7.59,7.59,0,0,0,2.95-1.28c1.1-.68,1.5-2.75,2-3.89s1-2.43,1.47-3.66a13,13,0,0,0,.86-2.6,20.85,20.85,0,0,0-1.56-5.87,29.84,29.84,0,0,0-3.44-5.61c-1.57-2.26-3.08-4.57-4.72-6.79a5,5,0,0,1-1-1.7,6,6,0,0,1-.75-2.39c-.49-1-1.18-1.56-.86-2.76a1.61,1.61,0,0,1,.72-1.2l.88-.48.27-.87a3,3,0,0,1,1.17-1.28l-8.29-1.54c3.25,2.38,3.28,6.17,3.8,9.79a1.69,1.69,0,0,0,1.06-.7q1.65-1.63,3.22-3.34t3.11-3.45A1.69,1.69,0,0,0,406.52,923.5Z"/><path class="cls-7" d="M395.79,931.21c-.87-3.4-1.73-7-3.64-10-.8-1.26-3-3.83-4.8-2.53a5.89,5.89,0,0,0-1.07,2.09,14.19,14.19,0,0,0-.49,5.7,23.19,23.19,0,0,0,4.14,10.86,59.16,59.16,0,0,0,6.24,7.75c2.33,2.45,5.2,4.49,7.37,7.09l3.5,5.57-.7,3.53a6.15,6.15,0,0,1-3.81,1c-2,0-4-.51-6-.68a5.69,5.69,0,0,0-2.32.06c-2.6,1-1.69,4.37-.65,6.14a3.15,3.15,0,0,0,1.11,1.34,8,8,0,0,1,2.36,4.34q2.09,1.93,1,3.88a5.21,5.21,0,0,1-.78,1.52c-1.1,1.77-2.77,3.11-3.88,4.88-.67,1.07-.48,1.94.09,3.15,1.18,2.51,3.5,2.79,6,3.41.35.09.83-1,.37-1.19q-5.74-1.53-4.36-6.05.9-1.24,1.88-2.42a11.26,11.26,0,0,0,2.38-4.56,5.72,5.72,0,0,0-.35-3.7,27.89,27.89,0,0,0-4-8.14,6.53,6.53,0,0,1,.74-2.25l-2.06.3c3.38.43,7,2,10.47,1,1.83-.5,3.73-2,4-4a2.84,2.84,0,0,0-.56-2.35,21.79,21.79,0,0,0-3.52-5.63l-3.64-3.53a48.55,48.55,0,0,1-11.19-14.58l-.7-3.44a15.1,15.1,0,0,1,1.83-9.58l-2.75-.69,2.76,1.18-1.94-1.34,2.49,2-1.59-1.65a14.13,14.13,0,0,1,3.8,6.91q.64,2.5,1.07,5C394.76,932.31,395.9,931.64,395.79,931.21Z"/><path class="cls-7" d="M398,933.9c-2.14-3-3.48-6.6-6.47-8.91a4.44,4.44,0,0,0-4.21-1.07c-1.19.44-1.21,1-1.65,2.45-1.12,3.76-.1,7.65,1.27,11.17,1.94,5,5.38,9.39,9,13.23,4.41,4.63,10,8,11.35,14.75l.39-2.77c-1.53,5.41-7.08,4-10.65,3.79-1.38-.07-1.58-.16-2.58.38-1.68.92-2.6,2.13-2.26,4.15a9.56,9.56,0,0,0,3.21,4.84l3,4.78c.72,2.86-3.39,5.91-4.86,8.2a3.29,3.29,0,0,0-.77,2.82c.59,3.33,3.78,3.66,6.48,4.31.6.14,1.44-2.65.86-2.86-1.78-.63-3.24-1-4.12-2.72s-.09-2.92.82-4.21c1.28-1.82,2.94-3.71,3.38-6a5.29,5.29,0,0,0-1.47-5c-1.26-1.48-3-3-3.5-4.92a4.63,4.63,0,0,1,.59-3.52L393.73,968c2.31.19,4.51.82,6.79,1.18a7.47,7.47,0,0,0,5.45-.77c1.72-1.18,2.21-3.58,2.49-5.51a6.16,6.16,0,0,0-.58-3c-1.83-4.95-7-7.68-10.39-11.39-5.73-6.33-11.83-15.05-9-24l-.48.2a8.08,8.08,0,0,1,6.49,6.5,25.72,25.72,0,0,1,.94,5.55c.09.75,1.24-.66,1.32-.76C397,935.71,398.41,934.42,398,933.9Z"/><path class="cls-7" d="M407.88,922c-1.66,4.76-13.39-2.69-17.31,1.61-2,2.22-1.33,6.64-.73,9.17,1.17,5,4.71,9.1,8.07,12.86q3.43,3.45,6.65,7.1a19.44,19.44,0,0,1,3.61,5.76l-.09-.4.22,3.85,4.06-12.8-7.86,15.29,7.88-10.85-14.86,10.92a1.88,1.88,0,0,0-1.09.62,2.38,2.38,0,0,0-.8,2.34c.32,1.74,1.6,3,2.67,4.29a6,6,0,0,1,2.28,3.53,3.52,3.52,0,0,1,.13,2.82l.08-.4a40.27,40.27,0,0,1-3.58,5.83,9.89,9.89,0,0,0-1.55,2.79,2.94,2.94,0,0,0,.14,2c.87,2.2,3.33,2.46,5.35,3,.7.17,3-6.1,3-6.16q1.06-2.49,2-5a2.2,2.2,0,0,0,.28-1.44q-.67.57-.92-.1l-.12.39.37-1-.87,1.23c1.72-2,1.38-1.28,1.86-3.56.39-1.83.83-3.65,1.21-5.49l-.1.4a17.42,17.42,0,0,0,1.35-3.61l.24-1.51a2,2,0,0,0-1-2.28l-.15.36,4.29-9.71-8.24,11a6.36,6.36,0,0,0,3-1.28,2.32,2.32,0,0,0,.85-1.24q1.18-2.53,2.25-5.1t2.11-5.16a2.32,2.32,0,0,0,.3-1.48,25.86,25.86,0,0,0-4-9.79c-1.22-1.82-2.38-3.67-3.54-5.53-.77-1.23-2.18-2.64-2.51-4.1L402.7,930l-.73-1a2.14,2.14,0,0,1,0-1.83l.62-.63q1,0,1-.9a7.88,7.88,0,0,1,1.11-2l-10.54-1.06a4.14,4.14,0,0,1,2.38,2.87l.52,2q.51,2.74.74,5.52a1.58,1.58,0,0,0,.83-.55,73.45,73.45,0,0,0,5.63-5.86C405.49,925.13,407.28,923.76,407.88,922Z"/><path class="cls-7" d="M407.95,922.14c0,.16-12.8-1-13.32-1a4.71,4.71,0,0,0-2.06.21,2.91,2.91,0,0,0-2.25,1.72,10.4,10.4,0,0,0-.65,5.51,21.48,21.48,0,0,0,1.67,6.06,31.88,31.88,0,0,0,4.31,6c2.42,2.95,5.16,5.6,7.72,8.42a20.89,20.89,0,0,1,2.68,3.23,13.94,13.94,0,0,1,2.44,4.16l-.1-.35a6.05,6.05,0,0,1,.29,3.85l3.75-11L405,962.6l7.48-9.2-9.78,8.76,8.64-5.78-13.46,6.74a2.19,2.19,0,0,0-1,.56,2.23,2.23,0,0,0-.75,2.31c.37,1.69,1.66,2.88,2.73,4.14a5.71,5.71,0,0,1,2.27,3.39,3.36,3.36,0,0,1,.14,2.75l.08-.36c-1.16,2.62-3.07,4.71-4.41,7.23a4.33,4.33,0,0,0-.81,2.75c.44,2.54,3.51,3,5.44,3.47.7.18,2.84-5.16,2.89-5.27q1-2.14,1.94-4.33a1.76,1.76,0,0,0,.26-1.26q-.67.61-1-.05l-.12.35.34-.92-.15.35c1-1.18.74-.93,1.12-2.65s.87-3.65,1.27-5.49l-.1.36c.83-1.79,1.73-3.68,1.55-5.71-.09-1-.69-1.12-1.18-1.91s-.39-.85,0-1.6l-.28.26.95-.87-.28.25c4.34-2.92,1.78-2.37,3.07-12.82a5.81,5.81,0,0,0,0-1.33c-.23-2.55-2.46-5.45-3.72-7.48s-2.28-4.32-3.88-6a3,3,0,0,1-.91-1.26,3.53,3.53,0,0,1-.59-1.83c-.46-.89-1.21-1.35-.88-2.49a1.37,1.37,0,0,1,.72-1.06l.87-.41.19-1a3.61,3.61,0,0,1,1-1.57l-10.5-2.36a5.59,5.59,0,0,1,2.82,3.72,19.18,19.18,0,0,1,.81,3.32c.52,2.58,0,3.38,1.7,2,2.11-1.68,4.07-3.61,6-5.48C406.37,924.06,407.69,923.15,407.95,922.14Z"/><path class="cls-7" d="M402.35,928.14a26.23,26.23,0,0,0-2.71-2.2,13.59,13.59,0,0,0-3.71-1.57c-2-.62-4.15-1.53-6.2-.67-1.79.75-2.49,2.57-2.76,4.4-.46,3,.58,6.21,1.78,9,1.69,3.92,4.82,7.49,7.62,10.69q3.68,3.58,7.21,7.32a9.81,9.81,0,0,1,3.86,8.68l2-6.26-2.88,7.45,2.62-6-2.33,3.15,1.38-1.38c-3.75,2.65-6.36,3.23-11,4.85a10.18,10.18,0,0,0-2.59,1,2.21,2.21,0,0,0-.85,1.73c-.26,2.67,2.23,4.47,3.77,6.32q3.71,3.48-.62,8.94L396,985a12.42,12.42,0,0,0-1.82,3.06,3.74,3.74,0,0,0-.21,1.46c.39,2.91,3.44,3.13,5.74,3.58.64.12,2.22-7.3,1.62-7.43q-2.26.08-.91-2.43a24.9,24.9,0,0,1,.91-3c.77-2.22,1.79-4.54,1.95-6.92a6.28,6.28,0,0,0-.1-2,4.21,4.21,0,0,0-1.58-2.94,2,2,0,0,1,.75-3.73l-6.7,2a23,23,0,0,1,4.5.08,31.14,31.14,0,0,0,3.2.21,5.4,5.4,0,0,0,4.36-2.38,21.76,21.76,0,0,0,1.94-5.54,6.77,6.77,0,0,0-.25-4.89,24.13,24.13,0,0,0-4.32-6.54c-3.49-4.1-7.52-7.64-9.91-12.56q-.83-2.12-1.81-4.18A4.1,4.1,0,0,1,397,925.3l-4.32-1.23c3.65,1.84,3.48,7.3,3.75,10.63a1.07,1.07,0,0,0,.84-.49q1.23-1.23,2.39-2.54S402.79,928.53,402.35,928.14Z"/><path class="cls-7" d="M398,931.46a41,41,0,0,0-4.21-8.52c-1-1.36-2.46-3-4.28-2.94-1.62,0-1.8.83-2.33,2.35-1.24,3.56-.37,7.4.84,10.81,1.76,5,5.47,9.53,9.08,13.32,4.48,4.71,9.84,8,11.35,14.77l.38-1.24c-2.63,5.75-8.22,2.55-12.11,2.74a4.51,4.51,0,0,0-1.47.26c-3.5,1.45-1.34,5.52.32,7.43a13.71,13.71,0,0,1,3.72,7.49,10.64,10.64,0,0,1-1.57,3.09c-1.08,1.46-2.49,2.61-3.46,4.16a3.44,3.44,0,0,0,.43,3.91c1.42,2,3.33,2,5.53,2.56.57.14,1.08-1.49.53-1.69a5.21,5.21,0,0,1-4.48-3.5,3.51,3.51,0,0,1,1.14-3.48c1.45-1.85,2.92-3.55,3.4-6a5.94,5.94,0,0,0-.41-3.89,26.66,26.66,0,0,1-4-6.25,5.41,5.41,0,0,1,.62-3.7l-2,.56c3.76.4,8.37,2.47,12,.36a5.86,5.86,0,0,0,2.59-4.18c.16-1.41-1.34-3.8-2-5a23.08,23.08,0,0,0-5.7-6.28,34.38,34.38,0,0,1-6.83-7.47c-2.29-3.22-4.52-6.41-5.2-10.39a14,14,0,0,1,1.38-9.19l-1,0c4.58,1.23,5.44,7.23,6,11C396.29,933.43,398.14,931.89,398,931.46Z"/><path class="cls-7" d="M405,925.37c-.65-.17-1.26-.42-1.9-.63a39.7,39.7,0,0,0-7.52-1.12c-1.79-.19-4.36-.38-5.67,1.23a8.65,8.65,0,0,0-1.42,6.11,21.13,21.13,0,0,0,3.54,9.55,61.86,61.86,0,0,0,7.15,8.83q2.64,2.68,5.16,5.48a19.76,19.76,0,0,1,3.72,5.8l-.13-.33.31,2.93,2.39-9-3.24,10.16,3.67-9.39-8,10.59,6.3-6.74-9.25,6.64,6.59-4.25-10,4.88-.68.39a2.38,2.38,0,0,0-.89,1.74,5.45,5.45,0,0,0,1.61,4q1,1.19,1.93,2.41a5.43,5.43,0,0,1,1.68,3.41v-.34a5.94,5.94,0,0,1-.84,3.44l1.31-2.41Q399,981.89,397,985a11.81,11.81,0,0,0-1.67,2.92,5.39,5.39,0,0,0-.23,1.48,2.5,2.5,0,0,0,1.37,2.15,5,5,0,0,0,4.3,1.54c.6.13,1.79-5.19,1.79-5.21s1.5-5.4,1.06-5.4q-.91.34-1.19-.49l0,.34a4,4,0,0,0,.94-1.72,11.77,11.77,0,0,0,.35-1.65l-.08.33c.38-1.45.79-2.9,1.15-4.36a35.5,35.5,0,0,0,1.25-4.31,11.2,11.2,0,0,0,.09-2,2.21,2.21,0,0,0-.77-2q-2.94-2.81,3.35-6.32L401,966.48q1.62.2,3.26.25a26.32,26.32,0,0,0,4-2.24,1.69,1.69,0,0,0,.61-1.11q.49-1.56.91-3.15.55-2,1-4a14,14,0,0,0,.56-2.79,21.5,21.5,0,0,0-3-6.91c-2.64-3.93-6.32-7.18-8.68-11.29a13.37,13.37,0,0,1-1.61-4.09,3.62,3.62,0,0,1-1-2.35,2.36,2.36,0,0,1,1.65-2.26,2.65,2.65,0,0,1,1.68-1.68l-6.54-1c3.54,2.62,3.31,6.76,3.64,10.7a1.73,1.73,0,0,0,1-.78q1.56-1.76,3-3.59C401.45,930.34,405.3,925.44,405,925.37Z"/><path class="cls-7" d="M408,922.05q-7.33-.25-14.66-.39a6,6,0,0,0-2.87,1.26,8.29,8.29,0,0,0-1.15,3.68,16,16,0,0,0,.59,5.52c1.24,5,4.8,8.9,8.16,12.61q3.4,3.4,6.58,7a19.31,19.31,0,0,1,3.59,5.71l-.09-.38.26,3.86,4.06-11.9-7.82,14.51,7.86-10.06-10.16,9.45,9-6.47-13.84,7.43a1.89,1.89,0,0,0-1,.55,2.29,2.29,0,0,0-.78,2.33c.35,1.72,1.65,2.93,2.73,4.21a5.84,5.84,0,0,1,2.28,3.45,3.42,3.42,0,0,1,.14,2.78l.09-.38c-1.16,2.62-3.09,4.69-4.43,7.2a4.36,4.36,0,0,0-.82,2.77c.44,2.61,3.57,3,5.56,3.52.71.17,3-5.63,3-5.73q1.08-2.32,2.06-4.68a2,2,0,0,0,.29-1.36q-.67.59-.93-.07l-.12.38.36-.94-.15.37c1-1.19.76-1,1.13-2.68s.85-3.65,1.24-5.49l-.1.38c.82-1.8,1.73-3.71,1.54-5.74-.09-1-.68-1.11-1.17-1.9s-.39-.85,0-1.59l-.28.28c.57-.52,1.17-.91,1.77-1.38,4-3.2,3.31-10.89,1.31-15.6a49.08,49.08,0,0,0-3.91-6.6l-1.7-2.73a10.46,10.46,0,0,0-2-2.65,11.75,11.75,0,0,1-.85-2.53,2.23,2.23,0,0,1-.86-1.53,1,1,0,0,1,0-.92,1.37,1.37,0,0,1,.73-1.05l.88-.41.18-1a3.61,3.61,0,0,1,1-1.58L394.34,922a3.75,3.75,0,0,1,2.2,2.6l.55,1.95q.54,2.63.88,5.29a1.45,1.45,0,0,0,.82-.47,16.7,16.7,0,0,0,2.1-1.9q1.77-1.69,3.49-3.42C405.52,925,407.51,923.64,408,922.05Z"/><path class="cls-7" d="M404.54,925.88a20.19,20.19,0,0,0-4.14-1.65c-2.85-.71-6.83-2.23-9.61-.52-1.74,1.07-2,3.35-2,5.22a17.92,17.92,0,0,0,2.66,9.06,51.72,51.72,0,0,0,8.06,10.49c3.87,3.92,8,7.54,9.3,13.15l.23-2.46-.45,3.26,2-7.72-2.8,8.92,3.14-8-7.42,9.31,5-5.17-3.85,3,3.39-2.37-8.89,4.6,4.94-2.21-6.15,2.42a7.91,7.91,0,0,0-1.22.54,2.91,2.91,0,0,0-1.1,1.17c-.42,1.12.16,2.44.64,3.43q1.47,1.7,2.86,3.47,2.66,2.5.83,6.51l1.1-2.08c-1,1.79-2.11,3.56-3.25,5.29a14.38,14.38,0,0,0-2.07,3.57,5.56,5.56,0,0,0-.21,1.43,2.43,2.43,0,0,0,1.34,2.1,4.9,4.9,0,0,0,4.21,1.52c.87.2,2.45-9.15,2.18-9.16q-2,.37-.45-1.83.18-.73.33-1.47c.5-2,1.07-4.12,1.75-6.09a10.33,10.33,0,0,0,.73-4.54,3,3,0,0,0-1.29-2.62,1.84,1.84,0,0,1-.82-1.59l-7.06,3.39a109.62,109.62,0,0,0,12.2-4.62,1.32,1.32,0,0,0,.55-.95q.42-1.34.76-2.71.46-1.7.86-3.41a10.4,10.4,0,0,0,.43-2.4,20,20,0,0,0-3-6.86c-3-4.41-7.27-7.94-9.64-12.76-.63-1.28-.89-2.69-1.61-3.91a3.17,3.17,0,0,1-.51-2.39,2.76,2.76,0,0,1,1.12-1.61,5.78,5.78,0,0,1,2.21-1.71l-5.85-1.5a6.36,6.36,0,0,1,3.21,4.75,42.12,42.12,0,0,1,.75,5.6,1.34,1.34,0,0,0,.92-.62q1.37-1.48,2.66-3C401.47,930.1,404.95,926.08,404.54,925.88Z"/><path class="cls-7" d="M397.87,935.11c-2.16-3.23-3.25-7.51-6.45-10-1.11-.86-2.75-1.66-4.11-.8-1,.64-1.41,3.87-1.48,4.77a20,20,0,0,0,.91,7c1.7,5.87,5.71,10.76,9.88,15.09,4.54,4.71,10.06,8.29,11.45,15.15l.62-2.78c-1.25,2.83-3.5,3.92-6.45,3.93-1.72,0-3.42-.23-5.13-.35a3.44,3.44,0,0,0-2.3.29,3.8,3.8,0,0,0-1.7,1.77c-.69,1.57-.08,3.18.78,4.6q6.12,5.22,1.39,14.07l-1.07,1.37c-.79,1.15-1.12,1.55-.83,3,.68,3.31,3.83,3.66,6.57,4.32.59.14,1.29-2.35.71-2.54l-2.61-.84a2.54,2.54,0,0,1-1.78-3,1.7,1.7,0,0,1,.09-2.25q.4-.57.84-1.1a18.39,18.39,0,0,0,3-4.88,5.36,5.36,0,0,0-.1-4.69c-1-1.68-2.83-2.9-4-4.5a4.6,4.6,0,0,1-.32-5.1l-1.37.83c3.71.29,8.49,2.74,12.06.61,1.68-1,2.51-3.19,2.69-5.06.16-1.68-1.08-3.9-1.95-5.19-2.54-3.81-6.28-6.41-9.45-9.64-6.31-6.41-12.36-15.06-9.29-24.51l-.66.3,1.44-.2-.81-.11c5.47,1.56,6.79,8.35,7.38,12.82.09.7,1.06-.51,1.11-.59C397.28,936.55,398.21,935.62,397.87,935.11Z"/></g><path class="cls-8" d="M388,1028.5c-7.62,0-13.81-5.61-13.81-12.51v-3a11.46,11.46,0,0,1,.27-2.46l.13-.61h-.4V971.5H437v38.44h-.4l.13.61A11.46,11.46,0,0,1,437,1013v3c0,6.9-6.2,12.51-13.81,12.51Z"/><path class="cls-8" d="M436.53,972v37.44H436l.27,1.22a11,11,0,0,1,.26,2.35v3c0,6.62-6,12-13.31,12H388c-7.34,0-13.31-5.39-13.31-12v-3a11,11,0,0,1,.26-2.35l.27-1.22h-.53V972h61.83m1-1H373.7v39.44H374a11.91,11.91,0,0,0-.28,2.57v3c0,7.18,6.41,13,14.31,13h35.2c7.91,0,14.31-5.82,14.31-13v-3a11.91,11.91,0,0,0-.28-2.57h.28V971Z"/><ellipse class="cls-9" cx="440.09" cy="995.04" rx="10.21" ry="11.6"/><polygon class="cls-10" points="432 977 424 1023 435.53 1021.5 436 974 432 977"/></g><g id="bureau"><polyline class="cls-11" points="1117.51 1368.61 1222.31 1320.42 1228.53 1354.15 1109.33 1412 1117.51 1368.61"/><polygon class="cls-12" points="186.05 1658.31 336.07 1040.12 362.23 1050.57 212.21 1668.76 186.05 1658.31"/><path class="cls-12" d="M336.42,1040.79l25.23,10.08L211.86,1668.09,186.64,1658l149.78-617.21m-.7-1.36L185.46,1658.61l27.1,10.83,150.26-619.17-27.1-10.83Z"/><polygon class="cls-12" points="1018.4 1672.88 1168.42 1054.69 1194.59 1065.15 1044.57 1683.34 1018.4 1672.88"/><path class="cls-12" d="M1168.77,1055.37l25.23,10.08-149.78,617.21L1019,1672.57l149.78-617.21m-.7-1.36-150.26,619.17,27.1,10.83,150.26-619.17-27.1-10.83Z"/><polygon class="cls-12" points="348.17 1042.56 374.89 1034.8 486.26 1666.32 459.54 1674.08 348.17 1042.56"/><path class="cls-12" d="M374.5,1035.44,485.69,1666l-25.76,7.48-111.2-630.53,25.76-7.48m.79-1.27-27.69,8,111.55,632.51,27.69-8L375.29,1034.17Z"/><ellipse class="cls-13" cx="1186.5" cy="1030.5" rx="19" ry="15"/><polygon class="cls-12" points="1177.12 1060.05 1203.84 1052.29 1315.21 1683.8 1288.49 1691.57 1177.12 1060.05"/><path class="cls-12" d="M1203.44,1052.92l111.2,630.53-25.76,7.48-111.2-630.53,25.76-7.48m.79-1.27-27.69,8,111.55,632.51,27.69-8-111.55-632.51Z"/><polygon class="cls-14" points="363.83 1057.66 334.77 1046.04 326.94 1078.28 383.2 1078.96 378.23 1051.35 363.83 1057.66"/><polygon class="cls-14" points="1168.95 1053.65 1163.7 1076.09 1208.65 1076.09 1204.15 1050.73 1182.57 1060.93 1168.95 1053.65"/><path class="cls-15" d="M1186,1015.5c-.68,0-1.34,0-2,.08v29.83c.66.05,1.32.08,2,.08,10.49,0,19-6.72,19-15S1196.49,1015.5,1186,1015.5Z"/><path class="cls-16" d="M1167,1030.5c0,7.75,7.45,14.13,17,14.92v-29.83C1174.45,1016.37,1167,1022.75,1167,1030.5Z"/><rect class="cls-17" x="454.62" y="1051.09" width="591.75" height="25.23"/><path class="cls-17" d="M1045.88,1051.59v24.23H455.12v-24.23h590.75m1-1H454.12v26.23h592.75v-26.23Z"/><rect class="cls-18" x="183.5" y="1029.23" width="1130" height="32.52"/><path class="cls-18" d="M1313,1029.73v31.52H184v-31.52H1313m1-1H183v33.52H1314v-33.52Z"/><polygon class="cls-12" points="285.9 1369.34 393.9 1307.62 399.19 1337.65 278.9 1398.19 285.9 1369.34"/><path class="cls-12" d="M393.53,1308.41l5.11,29-119,59.89,6.69-27.59,107.19-61.26m.74-1.57L285.47,1369l-7.31,30.11,121.59-61.2-5.48-31.09Z"/></g><g id="étagère"><rect class="cls-19" x="917.5" y="532.5" width="506" height="18"/><rect class="cls-20" x="957.5" y="388.5" width="24" height="144" transform="translate(83.45 -145.23) rotate(8.95)"/><rect class="cls-21" x="993.5" y="388.5" width="33" height="144"/><rect class="cls-22" x="1029.5" y="388.5" width="33" height="144"/><rect class="cls-23" x="1065.5" y="388.5" width="33" height="144"/><rect class="cls-20" x="1102.5" y="388.5" width="33" height="144"/><rect class="cls-24" x="1138.5" y="388.5" width="33" height="144"/><rect class="cls-25" x="1174.5" y="388.5" width="33" height="144"/><rect class="cls-21" x="1236.5" y="505.5" width="160" height="27"/><rect class="cls-20" x="1236.5" y="477.5" width="156" height="28"/><rect class="cls-24" x="1261.5" y="454.5" width="139" height="23"/><rect class="cls-19" x="922.5" y="353.5" width="506" height="18" transform="translate(2351 725) rotate(-180)"/><rect class="cls-20" x="1364.5" y="209.5" width="24" height="144" transform="translate(2780.03 345.41) rotate(171.05)"/><rect class="cls-21" x="1319.5" y="209.5" width="33" height="144" transform="translate(2672 563) rotate(-180)"/><rect class="cls-22" x="1283.5" y="209.5" width="33" height="144" transform="translate(2600 563) rotate(-180)"/><rect class="cls-23" x="1247.5" y="209.5" width="33" height="144" transform="translate(2528 563) rotate(-180)"/><rect class="cls-20" x="1210.5" y="209.5" width="33" height="144" transform="translate(2454 563) rotate(-180)"/><rect class="cls-24" x="1174.5" y="209.5" width="33" height="144" transform="translate(2382 563) rotate(-180)"/><rect class="cls-25" x="1138.5" y="209.5" width="33" height="144" transform="translate(2310 563) rotate(-180)"/><rect class="cls-21" x="949.5" y="326.5" width="160" height="27" transform="translate(2059 680) rotate(-180)"/><rect class="cls-20" x="953.5" y="298.5" width="156" height="28" transform="translate(2063 625) rotate(-180)"/><rect class="cls-24" x="945.5" y="275.5" width="139" height="23" transform="translate(2030 574) rotate(-180)"/></g><g id="tableau"><rect class="cls-26" x="118.5" y="420.5" width="241" height="241"/><polyline class="cls-27" points="131.46 422.49 235.29 389.59 344.5 422.5 127 422.59"/><path class="cls-28" d="M239,621a78,78,0,1,1,78-78A78.09,78.09,0,0,1,239,621Z"/><path class="cls-28" d="M239,468a75,75,0,1,1-75,75,75.08,75.08,0,0,1,75-75m0-6a81,81,0,1,0,81,81,81,81,0,0,0-81-81Z"/><path class="cls-29" d="M239,611.05A68.05,68.05,0,1,1,307.05,543,68.13,68.13,0,0,1,239,611.05Z"/><path class="cls-29" d="M239,477.95A65.05,65.05,0,1,1,173.95,543,65.12,65.12,0,0,1,239,477.95m0-6A71.05,71.05,0,1,0,310.05,543,71.05,71.05,0,0,0,239,471.95Z"/><path class="cls-29" d="M239,611.05A68.05,68.05,0,1,1,307.05,543,68.13,68.13,0,0,1,239,611.05Z"/><path class="cls-29" d="M239,477.95A65.05,65.05,0,1,1,173.95,543,65.12,65.12,0,0,1,239,477.95m0-6A71.05,71.05,0,1,0,310.05,543,71.05,71.05,0,0,0,239,471.95Z"/><path class="cls-30" d="M238.11,603.57a60.13,60.13,0,1,1,60.13-60.13A60.2,60.2,0,0,1,238.11,603.57Z"/><path class="cls-30" d="M238.11,486.31A57.13,57.13,0,1,1,181,543.44a57.2,57.2,0,0,1,57.13-57.13m0-6a63.13,63.13,0,1,0,63.13,63.13,63.13,63.13,0,0,0-63.13-63.13Z"/><path class="cls-30" d="M238.11,603.57a60.13,60.13,0,1,1,60.13-60.13A60.2,60.2,0,0,1,238.11,603.57Z"/><path class="cls-30" d="M238.11,486.31A57.13,57.13,0,1,1,181,543.44a57.2,57.2,0,0,1,57.13-57.13m0-6a63.13,63.13,0,1,0,63.13,63.13,63.13,63.13,0,0,0-63.13-63.13Z"/><path class="cls-31" d="M238.11,594.27c-29.08,0-52.73-22.8-52.73-50.83s23.66-50.83,52.73-50.83,52.73,22.8,52.73,50.83S267.19,594.27,238.11,594.27Z"/><path class="cls-31" d="M238.11,495.61c27.42,0,49.73,21.46,49.73,47.83s-22.31,47.83-49.73,47.83-49.73-21.46-49.73-47.83,22.31-47.83,49.73-47.83m0-6c-30.78,0-55.73,24.1-55.73,53.83s25,53.83,55.73,53.83,55.73-24.1,55.73-53.83-25-53.83-55.73-53.83Z"/><path class="cls-31" d="M238.11,594.27c-29.08,0-52.73-22.8-52.73-50.83s23.66-50.83,52.73-50.83,52.73,22.8,52.73,50.83S267.19,594.27,238.11,594.27Z"/><path class="cls-31" d="M238.11,495.61c27.42,0,49.73,21.46,49.73,47.83s-22.31,47.83-49.73,47.83-49.73-21.46-49.73-47.83,22.31-47.83,49.73-47.83m0-6c-30.78,0-55.73,24.1-55.73,53.83s25,53.83,55.73,53.83,55.73-24.1,55.73-53.83-25-53.83-55.73-53.83Z"/><path class="cls-32" d="M238.11,583.32c-22.83,0-41.4-17.89-41.4-39.88s18.57-39.88,41.4-39.88,41.4,17.89,41.4,39.88S260.94,583.32,238.11,583.32Z"/><path class="cls-32" d="M238.11,506.56c21.17,0,38.4,16.55,38.4,36.88s-17.23,36.88-38.4,36.88-38.4-16.55-38.4-36.88,17.23-36.88,38.4-36.88m0-6c-24.52,0-44.4,19.2-44.4,42.88s19.88,42.88,44.4,42.88,44.4-19.2,44.4-42.88-19.88-42.88-44.4-42.88Z"/><circle class="cls-33" cx="236" cy="390" r="8.5"/></g><g id="polas"><rect class="cls-34" x="1153.19" y="657.33" width="103.61" height="111.17" transform="translate(119.35 -171.18) rotate(8.55)"/><rect class="cls-35" x="1167.09" y="662.47" width="78.54" height="82.76" transform="translate(331.03 1792.2) rotate(-81.45)"/><path class="cls-36" d="M1171.7,659.44l80.85,12.15L1241,748.27l-80.85-12.15,11.53-76.68m-.84-1.14L1159,737l82.83,12.45,11.82-78.66-82.83-12.45Z"/><rect class="cls-34" x="1216.19" y="661.33" width="103.61" height="111.17" transform="translate(-107.83 238.49) rotate(-10.31)"/><rect class="cls-37" x="1224.98" y="668.63" width="82.76" height="78.54" transform="translate(-106.24 238.05) rotate(-10.31)"/><path class="cls-36" d="M1299.64,662.44l13.88,76.29-80.44,14.63-13.88-76.29,80.44-14.63m.8-1.16-82.41,15,14.23,78.26,82.41-15-14.23-78.26Z"/></g><g id="ordinateur"><polyline class="cls-5" points="747.43 895.22 694.37 1028.73 825.39 1028.73 777.75 895.22 747.43 895.22"/><rect class="cls-5" x="515" y="813" width="488" height="141" rx="34.23" ry="34.23"/><path class="cls-38" d="M512.5,882.5v-311c0-24.25,18.21-44,40.6-44H964.9c22.38,0,40.6,19.73,40.6,44v311Z"/><path class="cls-38" d="M964.9,528c22.11,0,40.1,19.5,40.1,43.48V882H513V571.48c0-24,18-43.48,40.1-43.48H964.9m0-1H553.1c-22.7,0-41.1,19.91-41.1,44.48V883h494V571.48c0-24.56-18.4-44.48-41.1-44.48Z"/><rect class="cls-39" x="531.5" y="557.5" width="451" height="302"/><path class="cls-39" d="M982,558V859H532V558H982m1-1H531V860H983V557Z"/><circle class="cls-40" cx="759" cy="915" r="14"/><rect class="cls-5" x="671" y="1012" width="179" height="17"/></g><g id="code" class="cls-41"><rect class="cls-42" x="547" y="593" width="77" height="14"/><rect class="cls-43" x="547" y="612" width="77" height="14"/><rect class="cls-43" x="553" y="807" width="77" height="14"/><rect class="cls-42" x="553" y="826" width="77" height="14"/><rect class="cls-44" x="564" y="632" width="77" height="14"/><rect class="cls-43" x="583" y="651" width="115" height="14"/><rect class="cls-42" x="583" y="670" width="108" height="14"/><rect class="cls-42" x="584" y="690" width="82" height="14"/><rect class="cls-44" x="564" y="712" width="82" height="14"/><rect class="cls-43" x="581" y="736" width="275" height="14"/><rect class="cls-42" x="653" y="712" width="82" height="14"/><rect class="cls-44" x="671" y="690" width="17" height="14"/><rect class="cls-43" x="693" y="690" width="191" height="14"/><rect class="cls-42" x="581" y="759" width="82" height="14"/><rect class="cls-42" x="666" y="759" width="17" height="14"/><rect class="cls-44" x="687" y="759" width="191" height="14"/><rect class="cls-42" x="698" y="670" width="193" height="14"/><rect class="cls-44" x="706" y="651" width="156" height="14"/><rect class="cls-42" x="582" y="783" width="115" height="14"/><rect class="cls-43" x="705" y="783" width="156" height="14"/><rect class="cls-42" x="648" y="632" width="106" height="14"/></g><g id="lumiere"><rect class="cls-45" x="738.5" y="0.5" width="43" height="217"/><path class="cls-45" d="M781,1V217H739V1h42m1-1H738V218h44V0Z"/><rect class="cls-46" x="719.5" y="216.5" width="82" height="17"/><path class="cls-46" d="M801,217v16H720V217h81m1-1H719v18h83V216Z"/><rect class="cls-45" x="698.5" y="187.5" width="124" height="37"/><path class="cls-45" d="M822,188v36H699V188H822m1-1H698v38H823V187Z"/><polygon id="light3" class="cls-47" points="760 234 760 1028.73 550.91 1028.73 718.5 233.5 760 234"/><polygon id="light2" class="cls-47" points="760 234 760 1028.73 550.91 1028.73 718.5 233.5 760 234"/><polygon id="light1" class="cls-47" points="760.91 234 760.91 1028.73 970 1028.73 802.41 233.5 760.91 234"/></g></svg>